<?xml version="1.0" encoding="UTF-8"?>
<svg fill="#FFFFFF" width="100pt" height="100pt" version="1.1" viewBox="0 0 100 100" xmlns="http://www.w3.org/2000/svg">
 <path d="m69.535 95.832h-4.1016c-1.1484 0-2.082 0.93359-2.082 2.082 0 1.1484 0.93359 2.082 2.082 2.082h4.1016c1.1484 0 2.082-0.93359 2.082-2.082 0-1.1484-0.92969-2.082-2.082-2.082zm21.352-54.027c1 0.21094 1.9453 0.67969 2.7266 1.3398 0.39453 0.33203 0.875 0.49609 1.3516 0.49609 0.58984 0 1.1758-0.25 1.5859-0.73438 0.74609-0.875 0.63672-2.1914-0.23828-2.9375-1.3086-1.1133-2.8828-1.8906-4.5586-2.2461-1.0977-0.23047-2.2344 0.48047-2.4766 1.6055-0.23047 1.1289 0.48828 2.2383 1.6094 2.4766zm-33.656 54.027h-4.1016c-1.1484 0-2.082 0.93359-2.082 2.082 0 1.1484 0.93359 2.082 2.082 2.082h4.1016c1.1484 0 2.082-0.93359 2.082-2.082 0-1.1484-0.92969-2.082-2.082-2.082zm-15.562-8.4531v-4.1055c0-1.1484-0.93359-2.082-2.082-2.082-1.1523 0-2.0859 0.93359-2.0859 2.082v4.1055c0 1.1484 0.93359 2.082 2.082 2.082 1.1523 0 2.0859-0.92578 2.0859-2.082zm4.0547 8.0586c-0.95703-0.35938-1.8242-0.95703-2.5039-1.7344-0.75781-0.86719-2.0742-0.94922-2.9375-0.19141-0.86719 0.75781-0.95312 2.0742-0.19531 2.9414 1.1289 1.293 2.5703 2.2891 4.1719 2.8867 0.24609 0.085937 0.48828 0.13281 0.73438 0.13281 0.83984 0 1.6367-0.51562 1.9492-1.3555 0.39844-1.0742-0.14844-2.2812-1.2188-2.6797zm52.195-24.02c-1.1484 0-2.082 0.93359-2.082 2.082v4.1016c0 1.1484 0.93359 2.082 2.082 2.082 1.1484 0 2.082-0.93359 2.082-2.082v-4.1016c0-1.1484-0.93359-2.082-2.082-2.082zm0-12.305c-1.1484 0-2.082 0.93359-2.082 2.082v4.1016c0 1.1484 0.93359 2.082 2.082 2.082 1.1484 0 2.082-0.93359 2.082-2.082v-4.1016c0-1.1523-0.93359-2.082-2.082-2.082zm0-12.309c-1.1484 0-2.082 0.93359-2.082 2.082v4.1016c0 1.1484 0.93359 2.082 2.082 2.082 1.1484 0 2.082-0.93359 2.082-2.082v-4.1016c0-1.1484-0.93359-2.082-2.082-2.082zm0 36.918c-1.1484 0-2.082 0.93359-2.082 2.082l-0.007813 4.0195 2.082 0.078125 2.0898-0.32031v-3.7773c0-1.1523-0.93359-2.082-2.082-2.082zm-5.0859 11.203c-0.875 0.53516-1.875 0.84766-2.8984 0.89844-1.1484 0.0625-2.0273 1.043-1.9727 2.1914 0.058593 1.1133 0.97656 1.9766 2.0781 1.9766h0.10938c1.7109-0.089844 3.3906-0.61328 4.8555-1.5078 0.98438-0.60156 1.293-1.8828 0.69141-2.8672-0.59766-0.98828-1.8906-1.2891-2.8633-0.69141zm-10.984 0.90625h-4.1016c-1.1484 0-2.082 0.93359-2.082 2.082 0 1.1484 0.93359 2.082 2.082 2.082h4.1016c1.1484 0 2.082-0.93359 2.082-2.082 0-1.1484-0.93359-2.082-2.082-2.082zm-8.9297-56.25c0-1.1484-0.93359-2.082-2.0859-2.082h-1.4453c-0.35938-0.41406-0.64844-0.87109-1.0391-1.2617l-5.8477-5.8516v-19.969c0-5.7422-4.6719-10.418-10.418-10.418h-41.668c-5.7422 0-10.414 4.6758-10.414 10.418v41.668c0 5.7383 4.6719 10.414 10.418 10.414h20.832c1.1484 0 2.082-0.93359 2.082-2.082 0-1.1523-0.93359-2.0859-2.082-2.0859h-20.832c-3.4453 0-6.25-2.8047-6.25-6.25v-31.25h54.168v7.2969c-2.0156-0.3125-4.1484 0.16406-5.6406 1.6484-0.74609 0.74609-1.293 1.6406-1.6016 2.6172-2.2891-0.78516-4.9844-0.20312-6.7344 1.5508-0.93359 0.93359-1.5469 2.0977-1.793 3.3672-1.9961-0.28906-4.0586 0.39453-5.5 1.8398-1.2305 1.2266-1.9023 2.8633-1.9023 4.6016 0 0.15234 0.003907 0.30469 0.015626 0.45312-1.4023 0.1875-2.6953 0.82812-3.7148 1.8477-2.5352 2.5352-2.5352 6.6641 0 9.1953l1.8672 1.8633v7.4727c0 3.3945 1.6523 6.3828 4.1758 8.2891 0 0.011719-0.007812 0.023438-0.007812 0.042969v2.082c0 1.1484 0.93359 2.082 2.082 2.082 1.1523 0 2.0859-0.93359 2.0859-2.082v-0.21094c0.67188 0.13672 1.3711 0.21094 2.082 0.21094h8.543c12.52 0 22.707-10.188 22.707-22.707 0-3.9492-1.0977-7.6953-2.9766-11.047 0.52734-0.375 0.89453-0.96094 0.89453-1.6641zm-62.5-27.082c-1.1523 0-2.0859-0.93359-2.0859-2.082 0-1.1523 0.93359-2.0859 2.0859-2.0859 1.1484 0 2.082 0.93359 2.082 2.0859 0 1.1484-0.93359 2.082-2.082 2.082zm8.332 0c-1.1484 0-2.082-0.93359-2.082-2.082 0-1.1523 0.93359-2.0859 2.082-2.0859s2.082 0.93359 2.082 2.0859c0 1.1484-0.93359 2.082-2.082 2.082zm8.332 0c-1.1484 0-2.082-0.93359-2.082-2.082 0-1.1523 0.93359-2.0859 2.082-2.0859 1.1523 0 2.0859 0.93359 2.0859 2.0859 0 1.1484-0.93359 2.082-2.0859 2.082zm56.055 25h-4.1016c-1.1484 0-2.082 0.93359-2.082 2.082 0 1.1484 0.93359 2.082 2.082 2.082h4.1016c1.1484 0 2.082-0.93359 2.082-2.082 0.003906-1.1484-0.92969-2.082-2.082-2.082z"/>
</svg>
